<svg width="15" height="17" viewBox="0 0 15 17" fill="none" xmlns="http://www.w3.org/2000/svg">
<path opacity="0.8" d="M9.65966 13.1154V13.6923C9.65966 14.3043 9.41653 14.8913 8.98375 15.3241C8.55098 15.7569 7.964 16 7.35197 16C6.73993 16 6.15296 15.7569 5.72018 15.3241C5.28741 14.8913 5.04427 14.3043 5.04427 13.6923V13.1154M13.5424 11.941C12.6164 10.8077 11.9627 10.2308 11.9627 7.10637C11.9627 4.24519 10.5016 3.22584 9.29908 2.73077C9.13935 2.66514 8.98899 2.51442 8.94031 2.35036C8.72937 1.63245 8.13802 1 7.35197 1C6.56591 1 5.9742 1.63281 5.76543 2.35108C5.71675 2.51695 5.56639 2.66514 5.40665 2.73077C4.20269 3.22656 2.74307 4.24231 2.74307 7.10637C2.74127 10.2308 2.08754 10.8077 1.16158 11.941C0.777928 12.4105 1.11399 13.1154 1.78502 13.1154H12.9225C13.5899 13.1154 13.9238 12.4083 13.5424 11.941Z" stroke="white" stroke-linecap="round" stroke-linejoin="round"/>
</svg>
