<svg width="25" height="24" viewBox="0 0 25 24" fill="none" xmlns="http://www.w3.org/2000/svg">
<path d="M10.686 11.4025V0.920164C10.686 0.785908 10.6305 0.660947 10.5286 0.572991C10.4314 0.485036 10.3017 0.443324 10.1674 0.457209C4.37072 1.18415 0 6.13822 0 11.9859C0 14.5647 0.828748 17.0048 2.3937 19.0512C2.47704 19.1531 2.59741 19.2179 2.73169 19.2318H2.76411C2.88445 19.2318 3.00021 19.1809 3.08819 19.0975L10.5471 11.7313C10.6351 11.6433 10.686 11.5275 10.686 11.4025Z" fill="white"/>
<path d="M11.9408 13.6249C11.7602 13.4443 11.4685 13.4443 11.2879 13.6203L4.39853 20.4218C4.30128 20.5143 4.25036 20.644 4.25962 20.7782C4.26889 20.9125 4.32907 21.0329 4.43556 21.1163C6.50053 22.746 8.98683 23.6072 11.6167 23.6072C14.2234 23.6072 16.6865 22.7599 18.7422 21.1625C18.8487 21.0792 18.9135 20.9589 18.9182 20.8245C18.9274 20.6949 18.8811 20.5653 18.7839 20.468L11.9408 13.6249Z" fill="white"/>
<path d="M24.4554 12.4916H15.3583C15.1396 12.4916 14.9428 12.643 14.8553 12.867C14.7733 13.0911 14.817 13.3516 14.9756 13.5273L21.4048 20.6494C21.5087 20.7644 21.6454 20.8249 21.793 20.8249H21.8258C21.9789 20.8128 22.1265 20.728 22.2194 20.5887C23.7338 18.4388 24.6905 15.8709 24.9966 13.1759C25.0131 13.0003 24.9693 12.8246 24.8654 12.6974C24.7616 12.5643 24.6085 12.4916 24.4554 12.4916Z" fill="white"/>
<path d="M13.0704 0.457209C12.9362 0.443324 12.8065 0.485036 12.7047 0.572991C12.6074 0.660947 12.5519 0.785908 12.5519 0.920164V10.5922C12.5519 10.8469 12.7556 11.0552 13.0149 11.0552H22.6869C22.8166 11.0552 22.9462 10.995 23.0342 10.8978C23.1221 10.796 23.1592 10.6663 23.1453 10.532C22.4878 5.25855 18.344 1.11931 13.0704 0.457209Z" fill="white"/>
</svg>
