<svg width="26" height="26" viewBox="0 0 26 26" fill="none" xmlns="http://www.w3.org/2000/svg">
<path d="M1.58711 20.5385C1.58711 20.5424 1.58711 20.5497 1.58264 20.5597C1.58432 20.553 1.58543 20.5458 1.58711 20.5385ZM22.7623 21.4554C22.5786 21.4514 22.3972 21.4136 22.2272 21.3438L19.0586 20.2205L19.0352 20.211C18.9661 20.1822 18.8919 20.1677 18.817 20.1686C18.748 20.1686 18.6796 20.1811 18.615 20.2054C18.538 20.2344 17.8444 20.495 17.1167 20.6948C16.7221 20.803 15.3488 21.1563 14.2467 21.1563C11.4297 21.1563 8.79581 20.0737 6.83097 18.1077C5.87109 17.1538 5.10998 16.0189 4.59167 14.7687C4.07337 13.5186 3.80817 12.1781 3.81144 10.8248C3.81141 10.1197 3.88737 9.41658 4.038 8.72772C4.52851 6.46098 5.82762 4.39903 7.69592 2.92415C9.61241 1.42082 11.9784 0.604856 14.4141 0.607183C17.3276 0.607183 20.0425 1.72325 22.0592 3.74223C23.9655 5.65461 25.0101 8.16912 25.0017 10.822C25.0001 12.7933 24.4114 14.7195 23.3109 16.3549L23.3003 16.3706L23.259 16.4264C23.2495 16.4392 23.24 16.4515 23.2311 16.4643L23.2227 16.4794C23.2005 16.5171 23.1804 16.5561 23.1624 16.596L24.0408 19.7177C24.0796 19.8465 24.1006 19.9799 24.1033 20.1144C24.1035 20.2906 24.069 20.4651 24.0017 20.6279C23.9343 20.7906 23.8356 20.9386 23.711 21.0631C23.5865 21.1877 23.4385 21.2865 23.2757 21.3538C23.113 21.4211 22.9385 21.4556 22.7623 21.4554Z" fill="white"/>
<path d="M14.9481 22.5598C14.8905 22.4476 14.8093 22.3492 14.7103 22.2712C14.6112 22.1932 14.4965 22.1375 14.3739 22.1078C14.0514 22.0224 13.6752 22.0369 13.3879 22.0157C10.6743 21.827 8.1208 20.6625 6.19924 18.7372C4.49095 17.0385 3.38074 14.8308 3.03574 12.4465C2.95762 11.903 2.95762 11.7679 2.95762 11.7679C2.95758 11.5866 2.90233 11.4096 2.79921 11.2604C2.69609 11.1112 2.54999 10.997 2.38035 10.9329C2.21072 10.8688 2.02558 10.8579 1.84958 10.9016C1.67358 10.9453 1.51506 11.0415 1.39512 11.1775C1.39512 11.1775 0.955385 11.6563 0.747795 12.1368C0.165586 13.4782 -0.0827023 14.9408 0.0242064 16.3993C0.131115 17.8577 0.590033 19.2685 1.36163 20.5107C1.50672 20.7523 1.50672 20.8639 1.47436 21.115C1.32201 21.9024 1.05527 23.2914 0.916322 24.0118C0.870315 24.2454 0.887429 24.4871 0.965898 24.7119C1.04437 24.9367 1.18136 25.1366 1.36275 25.2908L1.38842 25.3126C1.62838 25.5032 1.92574 25.607 2.23217 25.6072C2.40453 25.6074 2.57522 25.5734 2.7344 25.5073L5.72045 24.355C5.82326 24.3159 5.93684 24.3159 6.03965 24.355C7.21543 24.7925 8.4392 25.0246 9.5988 25.0246C11.0436 25.026 12.471 24.7085 13.779 24.0949C14.0837 23.9521 14.5603 23.7969 14.8393 23.4744C14.9449 23.3493 15.0115 23.196 15.0308 23.0334C15.0502 22.8708 15.0214 22.7062 14.9481 22.5598Z" fill="white"/>
</svg>
