<svg width="12" height="10" viewBox="0 0 12 10" fill="none" xmlns="http://www.w3.org/2000/svg">
<path d="M11.1014 3.8018C10.7733 3.55852 10.3702 3.37992 9.94453 3.28359C9.87465 3.26787 9.81068 3.2326 9.76009 3.18188C9.7095 3.13117 9.67438 3.06711 9.65883 2.99719C9.47602 2.18273 9.0825 1.4843 8.50406 0.955078C7.83164 0.338906 6.94242 0 6 0C5.17148 0 4.40625 0.259687 3.7882 0.751172C3.36933 1.08479 3.03217 1.50965 2.80242 1.99336C2.77751 2.04628 2.74057 2.09265 2.69454 2.12875C2.64851 2.16484 2.59468 2.18967 2.53734 2.20125C1.91039 2.32781 1.34438 2.59664 0.912187 2.9775C0.315469 3.50484 0 4.20586 0 5.00625C0 5.81531 0.339609 6.55313 0.956016 7.08656C1.54477 7.59492 2.33742 7.875 3.1875 7.875H5.625V4.28039L4.76508 5.14031C4.72918 5.17621 4.68636 5.20444 4.63923 5.2233C4.59209 5.24216 4.54161 5.25125 4.49086 5.25003C4.44011 5.2488 4.39013 5.23728 4.34396 5.21616C4.29779 5.19505 4.25639 5.16478 4.22227 5.12719C4.08633 4.97789 4.09945 4.74516 4.24219 4.60242L5.73492 3.10992C5.80524 3.03965 5.90059 3.00017 6 3.00017C6.09941 3.00017 6.19476 3.03965 6.26508 3.10992L7.75781 4.60195C7.905 4.74938 7.91344 4.99102 7.76695 5.13891C7.7322 5.17401 7.69086 5.20189 7.6453 5.22097C7.59974 5.24005 7.55086 5.24993 7.50146 5.25006C7.45207 5.25019 7.40314 5.24056 7.35748 5.22173C7.31182 5.2029 7.27033 5.17523 7.23539 5.14031L6.375 4.28039V7.875H9.28125C10.0158 7.875 10.6854 7.66875 11.1668 7.29445C11.712 6.87023 12 6.2632 12 5.54063C12 4.83891 11.6892 4.23727 11.1014 3.8018ZM5.625 9.38484C5.625 9.4843 5.66451 9.57968 5.73484 9.65001C5.80516 9.72034 5.90054 9.75984 6 9.75984C6.09946 9.75984 6.19484 9.72034 6.26517 9.65001C6.33549 9.57968 6.375 9.4843 6.375 9.38484V7.875H5.625V9.38484Z" fill="#131517"/>
</svg>
