<svg width="12" height="10" viewBox="0 0 12 10" fill="none" xmlns="http://www.w3.org/2000/svg">
<path d="M4.49206 1.11564L4.49303 1.11628L5.10275 1.3H5.10341H10.6C10.8387 1.3 11.0676 1.39482 11.2364 1.56361L11.5837 1.21626L11.2364 1.56361C11.4052 1.73239 11.5 1.96131 11.5 2.2V2.3H0.5V1.4C0.5 1.16131 0.594821 0.932389 0.763604 0.763607C0.932387 0.594824 1.16131 0.500003 1.4 0.500003L3.29725 0.500004L3.29823 0.500002C3.4758 0.499654 3.64945 0.55218 3.79706 0.650886C3.79706 0.650887 3.79707 0.650887 3.79707 0.650888L4.49206 1.11564ZM0.41549 9.18451L0.763604 8.8364C0.594821 8.66762 0.5 8.4387 0.5 8.2V4.1H11.5V8.2C11.5 8.4387 11.4052 8.66762 11.2364 8.8364C11.0676 9.00518 10.8387 9.1 10.6 9.1H1.4C1.1613 9.1 0.932386 9.00518 0.763604 8.8364L0.41549 9.18451Z" stroke="white"/>
</svg>
