<svg width="14" height="13" viewBox="0 0 14 13" fill="none" xmlns="http://www.w3.org/2000/svg">
<path d="M6.46495 1.12836C6.11571 0.772274 5.69918 0.489149 5.23957 0.295443C4.77996 0.101738 4.28643 0.0013153 3.78766 1.28343e-05C3.2889 -0.00128963 2.79485 0.0965537 2.33423 0.287856C1.87362 0.479159 1.45561 0.760105 1.10452 1.11437C0.578081 1.64961 0.21972 2.32716 0.0735926 3.06355C-0.0725351 3.79994 -4.54203e-05 4.563 0.28213 5.2587C0.332874 5.25257 0.385367 5.24907 0.438735 5.24907H2.45797L3.60582 2.5483C3.70688 2.31062 3.87583 2.10805 4.0915 1.96595C4.30718 1.82386 4.55998 1.74856 4.81825 1.7495C5.07653 1.75043 5.32878 1.82755 5.54342 1.9712C5.75806 2.11486 5.92554 2.31865 6.02488 2.55705L7.23485 5.4608L8.07474 4.1161C8.18328 3.94256 8.33091 3.79682 8.50584 3.69052C8.68076 3.58422 8.87813 3.52031 9.08216 3.50391C9.28619 3.4875 9.49123 3.51904 9.68089 3.59602C9.87055 3.673 10.0396 3.79328 10.1745 3.94725L11.3153 5.24907H13.562C13.6224 5.24907 13.681 5.25345 13.7387 5.26132C14.0083 4.56618 14.0709 3.80791 13.919 3.07798C13.7672 2.34805 13.4074 1.67763 12.8831 1.14761C12.5335 0.790837 12.1164 0.507165 11.6562 0.313107C11.1959 0.119049 10.7016 0.018483 10.2021 0.0172617C9.70264 0.0160404 9.20789 0.114189 8.74668 0.305993C8.28547 0.497798 7.86702 0.779427 7.51568 1.13449L6.99425 1.66204L6.46495 1.12836ZM6.61018 12.0758L2.4501 7.87373H3.32586C3.58326 7.87367 3.83496 7.79791 4.04963 7.65588C4.2643 7.51386 4.43247 7.31183 4.5332 7.07496L4.80091 6.44504L5.78954 8.81598C5.88222 9.03813 6.03421 9.23051 6.22889 9.37207C6.42357 9.51363 6.65343 9.59893 6.89333 9.61862C7.13323 9.63831 7.37393 9.59164 7.58908 9.48372C7.80424 9.37579 7.98557 9.21077 8.11323 9.00671L9.36432 7.00585L9.73177 7.42579C9.85488 7.56643 10.0066 7.67914 10.1768 7.75639C10.347 7.83364 10.5317 7.87365 10.7186 7.87373H11.597L7.43432 12.0758C7.38045 12.1304 7.31628 12.1737 7.24555 12.2032C7.17481 12.2328 7.09891 12.248 7.02225 12.248C6.94559 12.248 6.86969 12.2328 6.79895 12.2032C6.72821 12.1737 6.66405 12.1304 6.61018 12.0758ZM5.21736 2.89388C5.18435 2.8143 5.12857 2.74624 5.05703 2.69824C4.98548 2.65024 4.90136 2.62443 4.8152 2.62406C4.72905 2.62368 4.6447 2.64876 4.57274 2.69614C4.50078 2.74352 4.44442 2.81109 4.41072 2.89038L3.03714 6.12396H0.438735C0.322718 6.12396 0.211452 6.17005 0.129416 6.25208C0.0473796 6.33412 0.00129192 6.44539 0.00129192 6.5614C0.00129192 6.67742 0.0473796 6.78869 0.129416 6.87072C0.211452 6.95276 0.322718 6.99885 0.438735 6.99885H3.32586C3.41163 6.99885 3.4955 6.97364 3.56706 6.92635C3.63861 6.87906 3.69468 6.81178 3.7283 6.73288L4.80879 4.18959L6.59618 8.47915C6.62698 8.55336 6.67763 8.61765 6.74256 8.66498C6.80749 8.7123 6.88421 8.74082 6.96428 8.74742C7.04436 8.75402 7.1247 8.73843 7.19651 8.70238C7.26831 8.66632 7.3288 8.61119 7.37133 8.54302L9.24621 5.54304L10.3897 6.84924C10.4307 6.89617 10.4813 6.9338 10.538 6.9596C10.5947 6.9854 10.6563 6.99878 10.7186 6.99885H13.562C13.678 6.99885 13.7893 6.95276 13.8713 6.87072C13.9534 6.78869 13.9995 6.67742 13.9995 6.5614C13.9995 6.44539 13.9534 6.33412 13.8713 6.25208C13.7893 6.17005 13.678 6.12396 13.562 6.12396H10.9172L9.51742 4.52292C9.47243 4.47145 9.416 4.43125 9.35266 4.40553C9.28932 4.37981 9.22084 4.3693 9.15271 4.37482C9.08457 4.38035 9.01868 4.40177 8.96032 4.43737C8.90195 4.47296 8.85275 4.52174 8.81664 4.57979L7.07824 7.36105L5.21736 2.89388Z" fill="white"/>
</svg>
