<svg width="11" height="11" viewBox="0 0 11 11" fill="none" xmlns="http://www.w3.org/2000/svg">
<g opacity="0.6">
<path d="M5.31878 2C5.14656 2 4.98906 2.14636 5.0006 2.31818L5.15969 6.61364C5.15969 6.65583 5.17645 6.6963 5.20628 6.72613C5.23612 6.75597 5.27658 6.77273 5.31878 6.77273C5.36097 6.77273 5.40144 6.75597 5.43127 6.72613C5.46111 6.6963 5.47787 6.65583 5.47787 6.61364L5.63696 2.31818C5.64849 2.14636 5.49099 2 5.31878 2Z" stroke="white" stroke-linecap="round" stroke-linejoin="round"/>
<path d="M5.31867 9.00001C5.4944 9.00001 5.63685 8.85756 5.63685 8.68183C5.63685 8.5061 5.4944 8.36365 5.31867 8.36365C5.14294 8.36365 5.00049 8.5061 5.00049 8.68183C5.00049 8.85756 5.14294 9.00001 5.31867 9.00001Z" fill="#131517" stroke="white" stroke-linecap="round" stroke-linejoin="round"/>
<circle cx="5.5" cy="5.5" r="5" stroke="white"/>
</g>
</svg>
