<svg width="4" height="10" viewBox="0 0 4 10" fill="none" xmlns="http://www.w3.org/2000/svg">
<path opacity="0.7" d="M3.04225 1.36419V1.69014L3.03622 1.72032L3.01811 1.76258C2.96982 2.10865 2.81489 2.40443 2.55332 2.6499C2.29175 2.89537 1.99195 3.02616 1.65392 3.04225C1.40443 3.05835 1.17103 3.02414 0.953722 2.93964C0.736419 2.85513 0.551308 2.72837 0.39839 2.55936C0.245473 2.39034 0.132797 2.18913 0.0603622 1.95573C0.0603622 1.93159 0.0402414 1.84306 0 1.69014V1.36419C0 1.35614 0.00402414 1.34406 0.0120724 1.32797L0.0241449 1.29175C0.136821 0.672032 0.498994 0.261569 1.11066 0.0603622C1.14286 0.0523139 1.18913 0.0402415 1.2495 0.0241449C1.30986 0.00804829 1.34406 0 1.35211 0H1.69014L1.70221 0.0120724C1.72636 0.0201207 1.74245 0.0241449 1.7505 0.0241449C2.06439 0.0724346 2.334 0.201207 2.55936 0.410463C2.78471 0.619718 2.9336 0.881288 3.00604 1.19517C3.01408 1.22736 3.02616 1.27968 3.04225 1.35211V1.36419ZM3.04225 7.83099V8.16901L3.03018 8.1992L3.01811 8.24145C2.96177 8.58753 2.80282 8.8833 2.54125 9.12877C2.27968 9.37425 1.97988 9.50503 1.64185 9.52113C1.25553 9.53722 0.915493 9.44064 0.62173 9.23139C0.327968 9.02213 0.136821 8.74044 0.0482897 8.38632C0.0402415 8.33803 0.0241449 8.26559 0 8.16901V7.83099L0.0120724 7.8008L0.0241449 7.75855C0.0724346 7.41247 0.229376 7.1167 0.49497 6.87123C0.760563 6.62575 1.06237 6.49497 1.4004 6.47887C1.78672 6.46278 2.12676 6.55936 2.42052 6.76861C2.71429 6.97787 2.90543 7.25956 2.99396 7.61368C3.00201 7.66197 3.01811 7.73441 3.04225 7.83099Z" fill="#131517"/>
</svg>
