<svg width="24" height="26" viewBox="0 0 24 26" fill="none" xmlns="http://www.w3.org/2000/svg">
<path d="M23.3641 16.2836L21.5368 14.7216C21.6234 14.1908 21.6681 13.6487 21.6681 13.1094C21.6681 12.5702 21.6234 12.0253 21.5368 11.4972L23.3641 9.93533C23.5022 9.81716 23.601 9.65976 23.6474 9.48407C23.6938 9.30839 23.6856 9.12274 23.624 8.9518L23.5988 8.87915C23.0959 7.47285 22.3424 6.1693 21.3747 5.03166L21.3244 4.97298C21.2069 4.83482 21.0503 4.7355 20.8752 4.68811C20.7002 4.64073 20.5148 4.6475 20.3437 4.70754L18.0749 5.51504C17.2366 4.82769 16.3034 4.28563 15.2919 3.90842L14.8533 1.53622C14.8202 1.35752 14.7335 1.19311 14.6047 1.06485C14.476 0.936585 14.3112 0.850536 14.1324 0.818133L14.0569 0.804163C12.604 0.541516 11.0728 0.541516 9.61989 0.804163L9.54445 0.818133C9.36561 0.850536 9.20087 0.936585 9.07211 1.06485C8.94335 1.19311 8.85666 1.35752 8.82356 1.53622L8.38209 3.9196C7.3802 4.29981 6.44688 4.84056 5.61872 5.52063L3.33313 4.70754C3.16203 4.64703 2.97658 4.64001 2.8014 4.68742C2.62622 4.73483 2.46961 4.83443 2.3524 4.97298L2.3021 5.03166C1.33616 6.17051 0.582803 7.47373 0.0779868 8.87915L0.0528397 8.9518C-0.0728954 9.30106 0.0304869 9.69224 0.312692 9.93533L2.1624 11.514C2.07578 12.0393 2.03387 12.5758 2.03387 13.1066C2.03387 13.6431 2.07578 14.1796 2.1624 14.6993L0.318281 16.278C0.180239 16.3961 0.0814415 16.5535 0.0350243 16.7292C-0.0113928 16.9049 -0.00322989 17.0906 0.0584279 17.2615L0.0835749 17.3341C0.58931 18.7396 1.33534 20.0388 2.30769 21.1816L2.35798 21.2403C2.47549 21.3785 2.6321 21.4778 2.80717 21.5252C2.98225 21.5726 3.16757 21.5658 3.33872 21.5058L5.6243 20.6927C6.45695 21.3772 7.3846 21.9193 8.38768 22.2937L8.82915 24.6771C8.86225 24.8558 8.94894 25.0202 9.0777 25.1484C9.20646 25.2767 9.3712 25.3628 9.55003 25.3952L9.62548 25.4091C11.0927 25.6732 12.5953 25.6732 14.0625 25.4091L14.138 25.3952C14.3168 25.3628 14.4815 25.2767 14.6103 25.1484C14.7391 25.0202 14.8258 24.8558 14.8589 24.6771L15.2975 22.3049C16.309 21.9249 17.2422 21.3856 18.0805 20.6983L20.3493 21.5058C20.5204 21.5663 20.7058 21.5733 20.881 21.5259C21.0562 21.4785 21.2128 21.3789 21.33 21.2403L21.3803 21.1816C22.3527 20.0333 23.0987 18.7396 23.6044 17.3341L23.6296 17.2615C23.7497 16.915 23.6463 16.5266 23.3641 16.2836ZM11.844 17.7421C9.13092 17.7421 6.93195 15.5431 6.93195 12.83C6.93195 10.1169 9.13092 7.91798 11.844 7.91798C14.5571 7.91798 16.7561 10.1169 16.7561 12.83C16.7561 15.5431 14.5571 17.7421 11.844 17.7421Z" fill="white"/>
</svg>
